<?xml version="1.0" encoding="UTF-8" standalone="no"?>
<!-- Created with Inkscape (http://www.inkscape.org/) -->

<svg
   xmlns:dc="http://purl.org/dc/elements/1.1/"
   xmlns:cc="http://creativecommons.org/ns#"
   xmlns:rdf="http://www.w3.org/1999/02/22-rdf-syntax-ns#"
   xmlns:svg="http://www.w3.org/2000/svg"
   xmlns="http://www.w3.org/2000/svg"
   xmlns:sodipodi="http://sodipodi.sourceforge.net/DTD/sodipodi-0.dtd"
   xmlns:inkscape="http://www.inkscape.org/namespaces/inkscape"
   width="210mm"
   height="297mm"
   viewBox="0 0 744.09448819 1052.3622047"
   id="svg13909"
   version="1.1"
   inkscape:version="0.91 r13725"
   inkscape:export-filename="/users/sbi00/mw581/CS/home/Desktop/MMRP/deSTAIR/Meetings/poster/161128SAB/RBC_logo_white.png"
   inkscape:export-xdpi="900"
   inkscape:export-ydpi="900"
   sodipodi:docname="rbc_logo.svg">
  <defs
     id="defs13911" />
  <sodipodi:namedview
     id="base"
     pagecolor="#ffffff"
     bordercolor="#666666"
     borderopacity="1.0"
     inkscape:pageopacity="0.0"
     inkscape:pageshadow="2"
     inkscape:zoom="0.98994949"
     inkscape:cx="258.97389"
     inkscape:cy="550.85848"
     inkscape:document-units="px"
     inkscape:current-layer="layer1"
     showgrid="false"
     inkscape:window-width="2560"
     inkscape:window-height="1379"
     inkscape:window-x="0"
     inkscape:window-y="0"
     inkscape:window-maximized="1" />
  <metadata
     id="metadata13914">
    <rdf:RDF>
      <cc:Work
         rdf:about="">
        <dc:format>image/svg+xml</dc:format>
        <dc:type
           rdf:resource="http://purl.org/dc/dcmitype/StillImage" />
        <dc:title></dc:title>
      </cc:Work>
    </rdf:RDF>
  </metadata>
  <g
     inkscape:label="Layer 1"
     inkscape:groupmode="layer"
     id="layer1">
    <path
       d="m 366.49059,559.21136 c 5.025,0 8.8375,-1.10375 11.445,-3.32 2.6025,-2.2125 3.90625,-5.47375 3.90625,-9.785 0,-4.2675 -1.30375,-7.525 -3.90625,-9.76625 -2.6075,-2.23625 -6.42,-3.35875 -11.445,-3.35875 l -17.695,0 0,26.23 17.695,0 z m 1.07375,54.19875 c 6.41625,0 11.24125,-1.3525 14.47375,-4.0625 3.24125,-2.705 4.8625,-6.80125 4.8625,-12.285 0,-5.36125 -1.61125,-9.385 -4.82375,-12.07 -3.20375,-2.68125 -8.0425,-4.02375 -14.5125,-4.02375 l -18.76875,0 0,32.44125 18.76875,0 z m 29.7075,-44.57 c 6.86,1.9925 12.1725,5.67875 15.9375,11.055 3.76,5.36625 5.645,11.9475 5.645,19.74625 0,11.9525 -4.04375,20.86875 -12.12875,26.7375 -8.07625,5.86 -20.3525,8.79 -36.83625,8.79 l -53.0475,0 0,-123.92625 47.98875,0 c 17.1975,0 29.65875,2.6075 37.3825,7.8125 7.72,5.195 11.5825,13.515 11.5825,24.96125 0,6.045 -1.41625,11.18125 -4.23875,15.41 -2.8125,4.23375 -6.90875,7.3725 -12.285,9.41375 z"
       style="fill:#3771c8;fill-opacity:1;fill-rule:nonzero;stroke:none"
       id="path8747"
       inkscape:connector-curvature="0" />
    <path
       d="m 160.63184,371.89636 c 6.68875,0 11.48875,-1.24 14.39375,-3.73 2.90125,-2.485 4.35625,-6.5825 4.35625,-12.285 0,-5.65 -1.455,-9.6925 -4.35625,-12.12875 -2.905,-2.4325 -7.705,-3.6525 -14.39375,-3.6525 l -13.4575,0 0,31.79625 13.4575,0 z m -13.4575,22.09 0,46.895 -31.95375,0 0,-123.92625 48.80875,0 c 16.32875,0 28.29125,2.745 35.89876,8.2225 7.6175,5.46875 11.42625,14.13125 11.42625,25.9775 0,8.1925 -1.9825,14.91625 -5.9375,20.175 -3.96,5.25 -9.9225,9.11625 -17.89126,11.6025 4.375,1.005 8.28626,3.26125 11.73876,6.77625 3.46125,3.51625 6.9625,8.84375 10.5075,15.9775 l 17.34374,35.195 -34.02374,0 -15.11626,-30.80125 c -3.0475,-6.19625 -6.13375,-10.42875 -9.25875,-12.695 -3.125,-2.265 -7.285,-3.39875 -12.48,-3.39875 l -9.0625,0 z"
       style="fill:#214478;fill-opacity:1;fill-rule:nonzero;stroke:none"
       id="path8749"
       inkscape:connector-curvature="0" />
    <path
       d="m 607.69184,326.10136 c -5.86,3.04625 -11.9725,5.34625 -18.34,6.89375 -6.3675,1.54875 -13.0075,2.325 -19.92125,2.325 -20.64,0 -36.9925,-5.7675 -49.0625,-17.305 -12.06125,-11.53375 -18.08625,-27.1775 -18.08625,-46.93375 0,-19.81375 6.025,-35.4925 18.08625,-47.03125 12.07,-11.5325 28.4225,-17.305 49.0625,-17.305 6.91375,0 13.55375,0.77625 19.92125,2.325 6.3675,1.5525 12.48,3.8475 18.34,6.89375 l 0,25.645 c -5.9275,-4.03375 -11.7675,-6.9925 -17.52,-8.8675 -5.75625,-1.885 -11.81125,-2.83125 -18.16375,-2.83125 -11.40625,0 -20.38125,3.65125 -26.91375,10.95625 -6.52375,7.305 -9.785,17.37875 -9.785,30.215 0,12.77375 3.26125,22.8125 9.785,30.1175 6.5325,7.305 15.5075,10.95625 26.91375,10.95625 6.3525,0 12.4075,-0.9375 18.16375,-2.8125 5.7525,-1.88375 11.5925,-4.8475 17.52,-8.88625 l 0,25.645 z"
       style="fill:#87aade;fill-opacity:1;fill-rule:nonzero;stroke:none"
       id="path8751"
       inkscape:connector-curvature="0" />
    <path
       d="m 399.99184,82.590104 0,213.998756 60,-20"
       style="fill:none;stroke:#5f8dd3;stroke-width:30;stroke-linecap:round;stroke-linejoin:miter;stroke-miterlimit:4;stroke-dasharray:none;stroke-opacity:1"
       id="path8753"
       inkscape:connector-curvature="0" />
    <path
       d="m 489.99184,346.58886 -90,30 0,100"
       style="fill:none;stroke:#5f8dd3;stroke-width:30;stroke-linecap:round;stroke-linejoin:miter;stroke-miterlimit:4;stroke-dasharray:none;stroke-opacity:1"
       id="path8755"
       inkscape:connector-curvature="0" />
    <path
       d="m 319.99184,476.58886 0,-60 -60,0"
       style="fill:none;stroke:#5f8dd3;stroke-width:30;stroke-linecap:round;stroke-linejoin:miter;stroke-miterlimit:4;stroke-dasharray:none;stroke-opacity:1"
       id="path8757"
       inkscape:connector-curvature="0" />
    <path
       d="m 259.99184,336.58886 60,0 0,-120"
       style="fill:none;stroke:#5f8dd3;stroke-width:30;stroke-linecap:round;stroke-linejoin:miter;stroke-miterlimit:4;stroke-dasharray:none;stroke-opacity:1"
       id="path8759"
       inkscape:connector-curvature="0" />
    <g
       id="g8761"
       transform="matrix(-0.52761125,-1.1432287,1.25,-0.5768875,12.066842,-237.41464)">
      <path
         d="m -513.551,143.224 c 39.954,17.481 56.658,60.911 37.312,97.007 -19.35,36.094 -67.42,51.183 -107.377,33.708 -39.955,-17.481 -56.659,-60.911 -37.309,-97.005 7.976,-14.883 21.33,-26.856 37.864,-33.952"
         style="fill:none;stroke:#5f8dd3;stroke-width:21.92156982;stroke-linecap:round;stroke-linejoin:miter;stroke-miterlimit:4;stroke-dasharray:none;stroke-opacity:1"
         id="path8763"
         inkscape:connector-curvature="0" />
    </g>
    <g
       id="g8765"
       transform="matrix(-0.00268887,-1.1432287,-1.25,0.00294001,12.066842,-237.41464)">
      <path
         d="m -501.264,-193.461 c 44.008,19.249 62.402,67.081 41.094,106.834 -21.309,39.753 -74.253,56.378 -118.256,37.125 -44.003,-19.253 -62.402,-67.084 -41.094,-106.841 8.782,-16.386 23.496,-29.574 41.701,-37.383"
         style="fill:none;stroke:#5f8dd3;stroke-width:24.14344978;stroke-linecap:round;stroke-linejoin:miter;stroke-miterlimit:4;stroke-dasharray:none;stroke-opacity:1"
         id="path8767"
         inkscape:connector-curvature="0" />
    </g>
    <g
       id="g8769"
       transform="matrix(-1.1432287,0.00268887,0.00294001,1.25,12.066842,-237.41464)">
      <path
         d="m -264.605,575.085 c 44.008,19.249 62.402,67.084 41.094,106.837 -21.309,39.753 -74.253,56.375 -118.256,37.122 -44.008,-19.249 -62.402,-67.081 -41.094,-106.838 8.782,-16.386 23.492,-29.574 41.701,-37.386"
         style="fill:none;stroke:#5f8dd3;stroke-width:24.14344978;stroke-linecap:round;stroke-linejoin:miter;stroke-miterlimit:4;stroke-dasharray:none;stroke-opacity:1"
         id="path8771"
         inkscape:connector-curvature="0" />
    </g>
    <path
       d="m 292.17934,93.806354 c 1.875,0 3.2125,-0.3425 4.02375,-1.035 0.805,-0.70375 1.21,-1.84625 1.21,-3.4375 0,-1.5725 -0.405,-2.70125 -1.21,-3.37875 -0.81125,-0.68875 -2.14875,-1.03625 -4.02375,-1.03625 l -3.77,0 0,8.8875 3.77,0 z m -3.77,6.17125 0,13.106246 -8.925,0 0,-34.628746 13.65125,0 c 4.55625,0 7.89625,0.77125 10.02,2.30375 2.11875,1.52375 3.18375,3.94125 3.18375,7.24625 0,2.295 -0.55625,4.175 -1.66,5.645 -1.09375,1.47375 -2.75375,2.55375 -4.98125,3.2425 1.21125,0.2725 2.295,0.9075 3.2625,1.89375 0.97625,0.97625 1.9575,2.461246 2.94875,4.453746 l 4.84375,9.84375 -9.51125,0 -4.21875,-8.61375 c -0.85,-1.72875 -1.70875,-2.91 -2.57875,-3.535 -0.87375,-0.635 -2.04,-0.957496 -3.49625,-0.957496 l -2.53875,0 z"
       style="fill:#808080;fill-opacity:1;fill-rule:nonzero;stroke:none"
       id="path8773"
       inkscape:connector-curvature="0" />
    <path
       d="m 311.88559,78.455104 9.98125,0 12.5975,23.749996 0,-23.749996 8.4575,0 0,34.628746 -9.96125,0 -12.5975,-23.749996 0,23.749996 -8.4775,0 0,-34.628746 z"
       style="fill:#808080;fill-opacity:1;fill-rule:nonzero;stroke:none"
       id="path8775"
       inkscape:connector-curvature="0" />
    <path
       d="m 368.56559,106.7751 -13.965,0 -2.20625,6.30875 -8.965,0 12.83125,-34.628746 10.645,0 12.8125,34.628746 -8.965,0 -2.1875,-6.30875 z m -11.7375,-6.42625 9.49125,0 -4.72625,-13.768746 -4.765,13.768746 z"
       style="fill:#808080;fill-opacity:1;fill-rule:nonzero;stroke:none"
       id="path8777"
       inkscape:connector-curvature="0" />
    <path
       d="m 63.883092,135.05635 c 1.40625,0 2.47125,-0.3025 3.20375,-0.91875 0.7275,-0.625 1.09375,-1.5325 1.09375,-2.73375 0,-1.19625 -0.36625,-2.11 -1.09375,-2.735 -0.7325,-0.625 -1.7975,-0.9375 -3.20375,-0.9375 l -4.94125,0 0,7.325 4.94125,0 z m 0.3125,15.15625 c 1.7975,0 3.145,-0.37625 4.04375,-1.1325 0.9075,-0.7675 1.36625,-1.915 1.36625,-3.4375 0,-1.495 -0.44875,-2.6175 -1.3475,-3.36 -0.89875,-0.7525 -2.25625,-1.1325 -4.0625,-1.1325 l -5.25375,0 0,9.0625 5.25375,0 z m 8.30125,-12.46125 c 1.91375,0.56125 3.3975,1.59125 4.4525,3.08625 1.055,1.49875 1.5825,3.34 1.5825,5.5275 0,3.335 -1.1325,5.82 -3.39875,7.46 -2.25625,1.64125 -5.68375,2.46125 -10.2925,2.46125 l -14.825,0 0,-34.62875 13.41875,0 c 4.805,0 8.28125,0.7325 10.43,2.1875 2.1575,1.445 3.24125,3.77 3.24125,6.9725 0,1.695 -0.4,3.135 -1.19125,4.31625 -0.78125,1.1725 -1.92375,2.04625 -3.4175,2.6175 z"
       style="fill:#808080;fill-opacity:1;fill-rule:nonzero;stroke:none"
       id="path8779"
       inkscape:connector-curvature="0" />
    <path
       d="m 81.661842,130.3101 8.3,0 0,25.97625 -8.3,0 0,-25.97625 z m 0,-10.1175 8.3,0 0,6.7775 -8.3,0 0,-6.7775 z"
       style="fill:#808080;fill-opacity:1;fill-rule:nonzero;stroke:none"
       id="path8781"
       inkscape:connector-curvature="0" />
    <path
       d="m 105.97809,135.6226 c -1.83625,0 -3.2425,0.66375 -4.21875,1.9925 -0.9675,1.3175 -1.445,3.2175 -1.445,5.7025 0,2.49 0.4775,4.395 1.445,5.7225 0.97625,1.31875 2.3825,1.9725 4.21875,1.9725 1.80625,0 3.18875,-0.65375 4.14,-1.9725 0.9625,-1.3275 1.44625,-3.2325 1.44625,-5.7225 0,-2.485 -0.48375,-4.385 -1.44625,-5.7025 -0.95125,-1.32875 -2.33375,-1.9925 -4.14,-1.9925 z m 0,-5.9375 c 4.4625,0 7.95375,1.20625 10.46875,3.61375 2.51,2.41125 3.77,5.75125 3.77,10.01875 0,4.2725 -1.26,7.6125 -3.77,10.02 -2.515,2.41125 -6.00625,3.6125 -10.46875,3.6125 -4.4825,0 -7.983748,-1.20125 -10.507498,-3.6125 -2.53,-2.4075 -3.79,-5.7475 -3.79,-10.02 0,-4.2675 1.26,-7.6075 3.79,-10.01875 2.52375,-2.4075 6.024998,-3.61375 10.507498,-3.61375 z"
       style="fill:#808080;fill-opacity:1;fill-rule:nonzero;stroke:none"
       id="path8783"
       inkscape:connector-curvature="0" />
    <path
       d="m 122.07684,130.3101 8.3,0 0,25.97625 -8.3,0 0,-25.97625 z m 0,-10.1175 8.3,0 0,6.7775 -8.3,0 0,-6.7775 z"
       style="fill:#808080;fill-opacity:1;fill-rule:nonzero;stroke:none"
       id="path8785"
       inkscape:connector-curvature="0" />
    <path
       d="m 160.14309,140.46635 0,15.82 -8.34,0 0,-12.10875 c 0,-2.23625 -0.0537,-3.78 -0.15625,-4.62875 -0.1075,-0.86 -0.2825,-1.49 -0.5275,-1.895 -0.3125,-0.5325 -0.75125,-0.9475 -1.30875,-1.25 -0.56125,-0.2975 -1.20125,-0.44875 -1.91375,-0.44875 -1.73375,0 -3.095,0.67375 -4.0825,2.01125 -0.99125,1.3275 -1.48375,3.17875 -1.48375,5.54625 l 0,12.77375 -8.30125,0 0,-25.97625 8.30125,0 0,3.80875 c 1.26,-1.52375 2.5975,-2.6425 4.00375,-3.36 1.40625,-0.7125 2.95375,-1.07375 4.64875,-1.07375 3.0075,0 5.2825,0.9275 6.83625,2.77375 1.5475,1.835 2.32375,4.50625 2.32375,8.0075 z"
       style="fill:#808080;fill-opacity:1;fill-rule:nonzero;stroke:none"
       id="path8787"
       inkscape:connector-curvature="0" />
    <path
       d="m 180.78309,120.1926 0,5.45 -4.59,0 c -1.1725,0 -1.9925,0.21375 -2.46125,0.64375 -0.45875,0.43 -0.68375,1.1675 -0.68375,2.2075 l 0,1.81625 7.09,0 0,5.9375 -7.09,0 0,20.03875 -8.3,0 0,-20.03875 -4.14125,0 0,-5.9375 4.14125,0 0,-1.81625 c 0,-2.8225 0.785,-4.9125 2.3625,-6.27 1.5725,-1.3525 4.01375,-2.03125 7.325,-2.03125 l 6.3475,0 z"
       style="fill:#808080;fill-opacity:1;fill-rule:nonzero;stroke:none"
       id="path8789"
       inkscape:connector-curvature="0" />
    <path
       d="m 192.42309,135.6226 c -1.83625,0 -3.2425,0.66375 -4.21875,1.9925 -0.96625,1.3175 -1.445,3.2175 -1.445,5.7025 0,2.49 0.47875,4.395 1.445,5.7225 0.97625,1.31875 2.3825,1.9725 4.21875,1.9725 1.80626,0 3.18876,-0.65375 4.14126,-1.9725 0.96125,-1.3275 1.445,-3.2325 1.445,-5.7225 0,-2.485 -0.48375,-4.385 -1.445,-5.7025 -0.9525,-1.32875 -2.335,-1.9925 -4.14126,-1.9925 z m 0,-5.9375 c 4.46251,0 7.95376,1.20625 10.46876,3.61375 2.51,2.41125 3.77,5.75125 3.77,10.01875 0,4.2725 -1.26,7.6125 -3.77,10.02 -2.515,2.41125 -6.00625,3.6125 -10.46876,3.6125 -4.4825,0 -7.98375,-1.20125 -10.5075,-3.6125 -2.53,-2.4075 -3.78875,-5.7475 -3.78875,-10.02 0,-4.2675 1.25875,-7.6075 3.78875,-10.01875 2.52375,-2.4075 6.025,-3.61375 10.5075,-3.61375 z"
       style="fill:#808080;fill-opacity:1;fill-rule:nonzero;stroke:none"
       id="path8791"
       inkscape:connector-curvature="0" />
    <path
       d="m 227.87309,137.3801 c -0.7325,-0.33625 -1.45625,-0.58625 -2.16875,-0.7425 -0.7175,-0.165 -1.44,-0.25375 -2.1675,-0.25375 -2.13875,0 -3.785,0.68375 -4.94125,2.05125 -1.1475,1.3675 -1.71875,3.33 -1.71875,5.87875 l 0,11.9725 -8.30124,0 0,-25.97625 8.30124,0 0,4.2575 c 1.06375,-1.68875 2.29,-2.93 3.67125,-3.71125 1.39125,-0.78125 3.0525,-1.17125 4.98125,-1.17125 0.2825,0 0.59,0.015 0.9175,0.0387 0.3225,0.015 0.79125,0.0588 1.40625,0.1375 l 0.02,7.51875 z"
       style="fill:#808080;fill-opacity:1;fill-rule:nonzero;stroke:none"
       id="path8793"
       inkscape:connector-curvature="0" />
    <path
       d="m 251.85684,134.62635 c 1.055,-1.61125 2.305,-2.8375 3.75,-3.67125 1.445,-0.845 3.0325,-1.27 4.76625,-1.27 2.9775,0 5.25375,0.9275 6.81625,2.77375 1.5625,1.835 2.34375,4.50625 2.34375,8.0075 l 0,15.82 -8.36,0 0,-13.555 c 0.01,-0.195 0.025,-0.395 0.0387,-0.605 0.01,-0.22 0.02,-0.5325 0.02,-0.9375 0,-1.83625 -0.27375,-3.16375 -0.82,-3.98375 -0.5375,-0.83125 -1.40625,-1.25 -2.6175,-1.25 -1.5775,0 -2.7925,0.65375 -3.6525,1.9525 -0.85875,1.28875 -1.30375,3.16375 -1.3275,5.625 l 0,12.75375 -8.36,0 0,-13.555 c 0,-2.86125 -0.24875,-4.70625 -0.7425,-5.52625 -0.4975,-0.83125 -1.37625,-1.25 -2.63625,-1.25 -1.60125,0 -2.84125,0.65375 -3.71125,1.9525 -0.85875,1.30375 -1.28875,3.17375 -1.28875,5.605 l 0,12.77375 -8.34,0 0,-25.97625 8.34,0 0,3.80875 c 1.025,-1.47 2.1975,-2.57875 3.51625,-3.32 1.3275,-0.7425 2.7825,-1.11375 4.375,-1.11375 1.79625,0 3.37875,0.43875 4.745,1.30875 1.3775,0.85875 2.4275,2.07 3.145,3.6325 z"
       style="fill:#808080;fill-opacity:1;fill-rule:nonzero;stroke:none"
       id="path8795"
       inkscape:connector-curvature="0" />
    <path
       d="m 284.86934,144.5876 c -1.73375,0 -3.0375,0.3025 -3.90625,0.89875 -0.87375,0.585 -1.30875,1.455 -1.30875,2.5975 0,1.045 0.3525,1.865 1.055,2.46 0.70375,0.60125 1.68,0.89875 2.93,0.89875 1.5625,0 2.87625,-0.55625 3.945,-1.68 1.065,-1.1175 1.60125,-2.52375 1.60125,-4.21875 l 0,-0.95625 -4.31625,0 z m 12.695,-3.125 0,14.82375 -8.37875,0 0,-3.8475 c -1.1075,1.5775 -2.3575,2.725 -3.75,3.4375 -1.39625,0.7125 -3.085,1.07375 -5.0775,1.07375 -2.695,0 -4.8825,-0.78125 -6.5625,-2.34375 -1.67,-1.57125 -2.5,-3.6125 -2.5,-6.1125 0,-3.0475 1.04,-5.27875 3.125,-6.7 2.095,-1.415 5.39,-2.12875 9.8825,-2.12875 l 4.8825,0 0,-0.66375 c 0,-1.31375 -0.5225,-2.27 -1.5625,-2.87125 -1.03,-0.61 -2.63625,-0.9175 -4.82375,-0.9175 -1.7875,0 -3.4475,0.175 -4.98,0.5275 -1.52375,0.35125 -2.945,0.88875 -4.25875,1.60125 l 0,-6.32875 c 1.7675,-0.43875 3.555,-0.77125 5.3525,-0.995 1.79625,-0.22 3.59375,-0.3325 5.39,-0.3325 4.6875,0 8.06625,0.9275 10.13625,2.77375 2.08,1.85 3.125,4.8525 3.125,9.00375 z"
       style="fill:#808080;fill-opacity:1;fill-rule:nonzero;stroke:none"
       id="path8797"
       inkscape:connector-curvature="0" />
    <path
       d="m 310.20184,122.9276 0,7.3825 8.555,0 0,5.9375 -8.555,0 0,11.015 c 0,1.21125 0.23375,2.03125 0.7025,2.46125 0.47875,0.42 1.43125,0.625 2.8525,0.625 l 4.27625,0 0,5.9375 -7.12875,0 c -3.27125,0 -5.595,-0.68375 -6.9725,-2.05 -1.3675,-1.3675 -2.05,-3.6925 -2.05,-6.97375 l 0,-11.015 -4.12125,0 0,-5.9375 4.12125,0 0,-7.3825 8.32,0 z"
       style="fill:#808080;fill-opacity:1;fill-rule:nonzero;stroke:none"
       id="path8799"
       inkscape:connector-curvature="0" />
    <path
       d="m 319.55184,130.3101 8.30125,0 0,25.97625 -8.30125,0 0,-25.97625 z m 0,-10.1175 8.30125,0 0,6.7775 -8.30125,0 0,-6.7775 z"
       style="fill:#808080;fill-opacity:1;fill-rule:nonzero;stroke:none"
       id="path8801"
       inkscape:connector-curvature="0" />
    <path
       d="m 352.49684,131.1301 0,6.7575 c -1.1325,-0.76625 -2.26625,-1.3325 -3.39875,-1.69875 -1.1325,-0.37625 -2.315,-0.56625 -3.535,-0.56625 -2.32,0 -4.13125,0.67875 -5.43,2.03125 -1.28875,1.3575 -1.93375,3.2425 -1.93375,5.66375 0,2.43625 0.645,4.33125 1.93375,5.68375 1.29875,1.3425 3.11,2.01125 5.43,2.01125 1.29875,0 2.52875,-0.185 3.69125,-0.56625 1.1725,-0.39 2.25125,-0.96125 3.2425,-1.71875 l 0,6.7975 c -1.30375,0.4825 -2.6275,0.84 -3.965,1.07375 -1.32875,0.235 -2.67125,0.35125 -4.02375,0.35125 -4.6775,0 -8.335,-1.19625 -10.97625,-3.59375 -2.64625,-2.40625 -3.965,-5.75125 -3.965,-10.03875 0,-4.2825 1.31875,-7.6225 3.965,-10.01875 2.64125,-2.4075 6.29875,-3.61375 10.97625,-3.61375 1.3675,0 2.705,0.12625 4.02375,0.37125 1.3275,0.23375 2.64625,0.595 3.965,1.07375 z"
       style="fill:#808080;fill-opacity:1;fill-rule:nonzero;stroke:none"
       id="path8803"
       inkscape:connector-curvature="0" />
    <path
       d="m 375.74809,131.1301 0,6.30875 c -1.7725,-0.7425 -3.48625,-1.29375 -5.13625,-1.66 -1.655,-0.37625 -3.2175,-0.56625 -4.6875,-0.56625 -1.5775,0 -2.74875,0.195 -3.51625,0.58625 -0.77125,0.39 -1.15125,0.995 -1.15125,1.81625 0,0.66375 0.2825,1.18125 0.85875,1.5425 0.58625,0.35125 1.62625,0.615 3.125,0.78125 l 1.465,0.195 c 4.2575,0.5475 7.11375,1.44125 8.57375,2.67625 1.47,1.24 2.2075,3.17875 2.2075,5.82 0,2.77375 -1.025,4.85875 -3.06625,6.25 -2.03125,1.3825 -5.07375,2.07 -9.12125,2.07 -1.71875,0 -3.49625,-0.13625 -5.3325,-0.41 -1.82625,-0.25875 -3.70625,-0.66375 -5.64375,-1.21 l 0,-6.30875 c 1.65,0.81 3.34375,1.415 5.0775,1.81625 1.74375,0.405 3.51625,0.605 5.3125,0.605 1.62625,0 2.85125,-0.22 3.6725,-0.66375 0.82,-0.45375 1.23,-1.12375 1.23,-2.01125 0,-0.7425 -0.2875,-1.295 -0.85875,-1.66125 -0.5625,-0.36125 -1.68,-0.64375 -3.36,-0.83875 l -1.465,-0.19625 c -3.70125,-0.45375 -6.28875,-1.30875 -7.77375,-2.55875 -1.48375,-1.25875 -2.22625,-3.16375 -2.22625,-5.7025 0,-2.75875 0.9425,-4.805 2.8325,-6.1325 1.885,-1.32875 4.775,-1.9925 8.67125,-1.9925 1.52375,0 3.125,0.1175 4.805,0.35125 1.69,0.235 3.525,0.60125 5.5075,1.09375 z"
       style="fill:#808080;fill-opacity:1;fill-rule:nonzero;stroke:none"
       id="path8805"
       inkscape:connector-curvature="0" />
    <path
       d="m 449.81059,133.1076 c -1.64,0.85 -3.35375,1.485 -5.13625,1.91375 -1.7725,0.43 -3.6225,0.645 -5.5475,0.645 -5.77125,0 -10.34125,-1.60625 -13.71,-4.82375 -3.375,-3.2275 -5.05875,-7.6025 -5.05875,-13.125 0,-5.5325 1.68375,-9.9075 5.05875,-13.125 3.36875,-3.2275 7.93875,-4.843746 13.71,-4.843746 1.925,0 3.775,0.215 5.5475,0.643746 1.7825,0.43 3.49625,1.075 5.13625,1.93375 l 0,7.16875 c -1.655,-1.13375 -3.29125,-1.95875 -4.9025,-2.48125 -1.60125,-0.5325 -3.29,-0.8 -5.0575,-0.8 -3.19375,0 -5.69875,1.025 -7.52,3.06625 -1.82625,2.045 -2.735,4.8575 -2.735,8.4375 0,3.58375 0.90875,6.39625 2.735,8.4375 1.82125,2.03125 4.32625,3.04625 7.52,3.04625 1.7675,0 3.45625,-0.25875 5.0575,-0.78125 1.61125,-0.5325 3.2475,-1.3575 4.9025,-2.48 l 0,7.1675 z"
       style="fill:#808080;fill-opacity:1;fill-rule:nonzero;stroke:none"
       id="path8807"
       inkscape:connector-curvature="0" />
    <path
       d="m 478.59059,121.93635 0,2.3825 -19.41375,0 c 0.195,1.94375 0.8975,3.39875 2.10875,4.375 1.21125,0.97625 2.895,1.465 5.05875,1.465 1.7425,0 3.535,-0.25875 5.37125,-0.78125 1.83625,-0.5175 3.715,-1.30875 5.64375,-2.36375 l 0,6.40625 c -1.9675,0.7425 -3.935,1.30375 -5.8975,1.68 -1.95375,0.37625 -3.91625,0.56625 -5.88,0.56625 -4.70125,0 -8.35375,-1.19125 -10.95625,-3.57375 -2.6075,-2.3925 -3.90625,-5.7475 -3.90625,-10.05875 0,-4.22875 1.27375,-7.55875 3.8275,-9.98125 2.56375,-2.43125 6.085,-3.65125 10.5675,-3.65125 4.07125,0 7.33375,1.23 9.785,3.69125 2.46,2.46 3.69125,5.74125 3.69125,9.84375 z m -8.535,-2.75375 c 0,-1.5725 -0.46375,-2.8425 -1.3875,-3.80875 -0.9125,-0.9625 -2.10875,-1.44625 -3.59375,-1.44625 -1.61625,0 -2.925,0.45 -3.925,1.34875 -1.00625,0.8975 -1.63125,2.20125 -1.875,3.90625 l 10.78125,0 z"
       style="fill:#808080;fill-opacity:1;fill-rule:nonzero;stroke:none"
       id="path8809"
       inkscape:connector-curvature="0" />
    <path
       d="m 506.79809,119.1826 0,15.82 -8.34,0 0,-12.11 c 0,-2.23625 -0.0537,-3.77875 -0.15625,-4.62875 -0.1075,-0.85875 -0.2825,-1.48875 -0.5275,-1.89375 -0.3125,-0.5325 -0.75125,-0.9475 -1.3075,-1.25 -0.5625,-0.29875 -1.20125,-0.45 -1.915,-0.45 -1.7325,0 -3.095,0.67375 -4.08125,2.0125 -0.99125,1.3275 -1.485,3.17875 -1.485,5.54625 l 0,12.77375 -8.3,0 0,-25.97625 8.3,0 0,3.8075 c 1.26,-1.5225 2.5975,-2.64125 4.00375,-3.35875 1.40625,-0.7125 2.955,-1.07375 4.64875,-1.07375 3.0075,0 5.28375,0.9275 6.83625,2.7725 1.5475,1.83625 2.32375,4.5075 2.32375,8.00875 z"
       style="fill:#808080;fill-opacity:1;fill-rule:nonzero;stroke:none"
       id="path8811"
       inkscape:connector-curvature="0" />
    <path
       d="m 519.38184,101.6426 0,7.38375 8.55375,0 0,5.9375 -8.55375,0 0,11.015 c 0,1.21125 0.23375,2.03125 0.7025,2.46125 0.47875,0.42 1.43125,0.625 2.85125,0.625 l 4.2775,0 0,5.9375 -7.12875,0 c -3.27125,0 -5.595,-0.68375 -6.9725,-2.05125 -1.3675,-1.3675 -2.05125,-3.69125 -2.05125,-6.9725 l 0,-11.015 -4.12125,0 0,-5.9375 4.12125,0 0,-7.38375 8.32125,0 z"
       style="fill:#808080;fill-opacity:1;fill-rule:nonzero;stroke:none"
       id="path8813"
       inkscape:connector-curvature="0" />
    <path
       d="m 554.71809,121.93635 0,2.3825 -19.41375,0 c 0.195,1.94375 0.89875,3.39875 2.10875,4.375 1.21125,0.97625 2.89625,1.465 5.05875,1.465 1.74375,0 3.535,-0.25875 5.37125,-0.78125 1.83625,-0.5175 3.71625,-1.30875 5.645,-2.36375 l 0,6.40625 c -1.96875,0.7425 -3.93625,1.30375 -5.89875,1.68 -1.95375,0.37625 -3.91625,0.56625 -5.87875,0.56625 -4.7025,0 -8.355,-1.19125 -10.9575,-3.57375 -2.6075,-2.3925 -3.90625,-5.7475 -3.90625,-10.05875 0,-4.22875 1.275,-7.55875 3.82875,-9.98125 2.56375,-2.43125 6.08375,-3.65125 10.56625,-3.65125 4.0725,0 7.33375,1.23 9.785,3.69125 2.46125,2.46 3.69125,5.74125 3.69125,9.84375 z m -8.535,-2.75375 c 0,-1.5725 -0.46375,-2.8425 -1.38625,-3.80875 -0.91375,-0.9625 -2.11,-1.44625 -3.59375,-1.44625 -1.61625,0 -2.925,0.45 -3.92625,1.34875 -1.00625,0.8975 -1.63125,2.20125 -1.875,3.90625 l 10.78125,0 z"
       style="fill:#808080;fill-opacity:1;fill-rule:nonzero;stroke:none"
       id="path8815"
       inkscape:connector-curvature="0" />
    <path
       d="m 576.06059,116.09635 c -0.7325,-0.3375 -1.455,-0.58625 -2.1675,-0.7425 -0.7175,-0.16625 -1.44,-0.25375 -2.1675,-0.25375 -2.13875,0 -3.785,0.68375 -4.9425,2.05125 -1.1475,1.36625 -1.71875,3.33 -1.71875,5.87875 l 0,11.9725 -8.3,0 0,-25.97625 8.3,0 0,4.2575 c 1.065,-1.69 2.29,-2.93 3.6725,-3.71125 1.39125,-0.78125 3.05125,-1.17125 4.98,-1.17125 0.28375,0 0.59125,0.0138 0.91875,0.0388 0.32125,0.015 0.79125,0.0588 1.40625,0.13625 l 0.0187,7.52 z"
       style="fill:#808080;fill-opacity:1;fill-rule:nonzero;stroke:none"
       id="path8817"
       inkscape:connector-curvature="0" />
  </g>
</svg>
